# xmcd CD database file
#
# Track frame offsets:
#	150
#	15247
#	34952
#	52410
#	67890
#	91275
#	106005
#	122610
#	142277
#	160207
#	184202
#	207057
#
# Disc length: 3012 seconds
#
# Revision: 0
# Processed by: cddbd v1.5.1PL0 Copyright (c) Steve Scherf et al.
# Submitted via: CDex 1.51
#
DISCID=a30bc20c
DTITLE=三枝夕夏 IN db - U-ka saegusa IN db II
DYEAR=2004
DGENRE=JPop
TTITLE0=いつも心に太陽を（10th sg）
TTITLE1=眠る君の横顔に微笑みを（7th sg）
TTITLE2=ココロが止まらない（JEWELRY COVER）
TTITLE3=胸いっぱいのこの愛を　誰より君に（JEWELRY COVER）
TTITLE4=青春の空
TTITLE5=へこんだ気持ち　溶かすキミ（8th sg）
TTITLE6=笑顔でいようよ（9th sg）
TTITLE7=最後のキスは氷のように冷たかった
TTITLE8=吹きすさぶ風の中で（WAG COVER）
TTITLE9=私を許さないで
TTITLE10=Hand to Hand
TTITLE11=君のハートに胸キュン?
EXTD=YEAR: 2004
EXTT0=
EXTT1=
EXTT2=
EXTT3=
EXTT4=
EXTT5=
EXTT6=
EXTT7=
EXTT8=
EXTT9=
EXTT10=
EXTT11=
PLAYORDER=
